<?xml version="1.0" standalone="no"?>
<!DOCTYPE svg PUBLIC "-//W3C//DTD SVG 20010904//EN"
 "http://www.w3.org/TR/2001/REC-SVG-20010904/DTD/svg10.dtd">
<svg version="1.0" xmlns="http://www.w3.org/2000/svg"
 width="31.000000pt" height="35.000000pt" viewBox="0 0 31.000000 35.000000"
 preserveAspectRatio="xMidYMid meet">

<g transform="translate(0.000000,35.000000) scale(0.100000,-0.100000)"
fill="#000000" stroke="none">
<path d="M125 339 c-10 -26 -1 -334 10 -332 14 4 19 323 6 336 -7 7 -12 5 -16
-4z"/>
<path d="M165 339 c-10 -26 -1 -334 10 -332 14 4 19 323 6 336 -7 7 -12 5 -16
-4z"/>
<path d="M85 299 c-10 -26 -1 -249 10 -249 14 0 19 240 6 253 -7 7 -12 5 -16
-4z"/>
<path d="M205 299 c-10 -26 -1 -249 10 -249 14 0 19 240 6 253 -7 7 -12 5 -16
-4z"/>
<path d="M45 278 c-10 -25 -1 -208 10 -208 13 0 19 200 6 213 -7 7 -12 5 -16
-5z"/>
<path d="M245 278 c-10 -25 -1 -208 10 -208 13 0 19 200 6 213 -7 7 -12 5 -16
-5z"/>
<path d="M5 248 c-10 -24 -1 -153 10 -153 13 0 19 145 6 158 -7 7 -12 5 -16
-5z"/>
<path d="M285 248 c-10 -24 -1 -153 10 -153 13 0 19 145 6 158 -7 7 -12 5 -16
-5z"/>
</g>
</svg>
